<svg width="18" height="14" viewBox="0 0 18 14" fill="none" xmlns="http://www.w3.org/2000/svg">
<path d="M0.992188 13.0117V12.1523C2.5026 11.5013 3.59635 10.6549 4.27344 9.61328C4.96354 8.58464 5.30859 7.52995 5.30859 6.44922C5.30859 6.22786 5.26302 6.05859 5.17188 5.94141C5.08073 5.83724 4.98958 5.78516 4.89844 5.78516C4.82031 5.78516 4.70312 5.83073 4.54688 5.92188C4.16927 6.14323 3.70052 6.25391 3.14062 6.25391C2.3724 6.25391 1.70182 5.95443 1.12891 5.35547C0.56901 4.75651 0.289062 4.05339 0.289062 3.24609C0.289062 2.38672 0.614583 1.63151 1.26562 0.980469C1.91667 0.329427 2.70443 0.00390625 3.62891 0.00390625C4.7487 0.00390625 5.70573 0.440104 6.5 1.3125C7.29427 2.17188 7.69141 3.35677 7.69141 4.86719C7.69141 6.72917 7.125 8.38281 5.99219 9.82812C4.8724 11.2734 3.20573 12.3346 0.992188 13.0117ZM10.9922 13.0117V12.1523C12.5026 11.5013 13.5964 10.6549 14.2734 9.61328C14.9635 8.58464 15.3086 7.52995 15.3086 6.44922C15.3086 6.22786 15.263 6.05859 15.1719 5.94141C15.0807 5.83724 14.9896 5.78516 14.8984 5.78516C14.8203 5.78516 14.7031 5.83073 14.5469 5.92188C14.1693 6.14323 13.7005 6.25391 13.1406 6.25391C12.3724 6.25391 11.7018 5.95443 11.1289 5.35547C10.569 4.75651 10.2891 4.05339 10.2891 3.24609C10.2891 2.38672 10.6146 1.63151 11.2656 0.980469C11.9167 0.329427 12.7044 0.00390625 13.6289 0.00390625C14.7487 0.00390625 15.7057 0.440104 16.5 1.3125C17.2943 2.17188 17.6914 3.35677 17.6914 4.86719C17.6914 6.72917 17.125 8.38281 15.9922 9.82812C14.8724 11.2734 13.2057 12.3346 10.9922 13.0117Z" fill="#E41338"/>
</svg>
